<svg width="12" height="23" viewBox="0 0 12 23" fill="none" xmlns="http://www.w3.org/2000/svg">
<g clip-path="url(#clip0_50_71)">
<path fill-rule="evenodd" clip-rule="evenodd" d="M11.6012 0.335777C11.3857 0.120039 11.0999 -0.000244141 10.8027 -0.000244141C10.5055 -0.000244141 10.2196 0.120039 10.0041 0.335777L0.662683 9.83938C0.453579 10.0489 0.287077 10.301 0.173301 10.5804C0.059526 10.8599 0.000854492 11.1608 0.000854492 11.4649C0.000854492 11.769 0.059526 12.0699 0.173301 12.3494C0.287077 12.6288 0.453579 12.8809 0.662683 13.0904L10.0718 22.6642C10.5081 23.1069 11.215 23.1127 11.658 22.6757C11.7652 22.5716 11.851 22.4453 11.91 22.3048C11.969 22.1643 12 22.0125 12.001 21.8588C12.002 21.7051 11.9731 21.5529 11.9159 21.4115C11.8588 21.2701 11.7747 21.1426 11.6689 21.0369L3.05832 12.2774C2.95368 12.1726 2.87036 12.0465 2.81342 11.9067C2.75648 11.767 2.72712 11.6164 2.72712 11.4643C2.72712 11.3122 2.75648 11.1617 2.81342 11.0219C2.87036 10.8821 2.95368 10.756 3.05832 10.6513L11.6001 1.96073C11.7047 1.85608 11.788 1.73007 11.845 1.59039C11.9019 1.45071 11.9313 1.30028 11.9313 1.14825C11.9313 0.996226 11.9019 0.845791 11.845 0.70611C11.788 0.56643 11.7047 0.440427 11.6001 0.335777" fill="black"/>
</g>
<defs>
<clipPath id="clip0_50_71">
<rect width="12" height="23" fill="white"/>
</clipPath>
</defs>
</svg>
