<svg width="22" height="8" viewBox="0 0 22 8" fill="none" xmlns="http://www.w3.org/2000/svg">
<g clip-path="url(#clip0_127_208)">
<path fill-rule="evenodd" clip-rule="evenodd" d="M0.321167 0.265822C0.114809 0.409491 -0.000244464 0.600057 -0.000244455 0.798185C-0.000244447 0.996315 0.114809 1.18688 0.321167 1.33055L9.41157 7.55819C9.61195 7.69759 9.85312 7.80859 10.1204 7.88444C10.3877 7.96029 10.6755 7.9994 10.9664 7.9994C11.2573 7.9994 11.5451 7.96029 11.8124 7.88444C12.0797 7.80859 12.3209 7.69759 12.5213 7.55819L21.6788 1.28546C22.1023 0.994548 22.1078 0.523276 21.6898 0.228003C21.5902 0.156516 21.4694 0.0993266 21.335 0.0599861C21.2006 0.0206452 21.0554 -7.11925e-06 20.9084 -0.000689467C20.7614 -0.00137134 20.6158 0.0179315 20.4805 0.0560213C20.3453 0.094111 20.2234 0.150175 20.1223 0.22073L11.7436 5.96109C11.6434 6.03085 11.5228 6.0864 11.3891 6.12436C11.2554 6.16232 11.1114 6.1819 10.9659 6.1819C10.8204 6.1819 10.6764 6.16232 10.5427 6.12436C10.409 6.0864 10.2884 6.03085 10.1882 5.96109L1.87547 0.266549C1.77537 0.196811 1.65484 0.141275 1.52123 0.103324C1.38763 0.0653738 1.24373 0.0458025 1.09832 0.0458025C0.952901 0.0458026 0.809007 0.0653739 0.675399 0.103324C0.541791 0.141275 0.421267 0.196811 0.321167 0.266549" fill="white"/>
</g>
<defs>
<clipPath id="clip0_127_208">
<rect width="8" height="22" fill="white" transform="translate(0 8) rotate(-90)"/>
</clipPath>
</defs>
</svg>
