<svg width="30" height="30" viewBox="0 0 30 30" fill="none" xmlns="http://www.w3.org/2000/svg">
<path d="M21.25 7.5V6.25C21.25 2.79813 18.4519 0 15 0C11.5481 0 8.75 2.79813 8.75 6.25V7.5H3.75V26.25C3.75 28.3219 5.42813 30 7.5 30H22.5C24.5719 30 26.25 28.3219 26.25 26.25V7.5H21.25ZM11.25 6.25C11.25 4.17906 12.9291 2.5 15 2.5C17.0709 2.5 18.75 4.17906 18.75 6.25V7.5H11.25V6.25ZM23.75 26.25C23.75 26.9406 23.1906 27.5 22.5 27.5H7.5C6.80938 27.5 6.25 26.9406 6.25 26.25V10H23.75V26.25Z" fill="black"/>
</svg>
