<svg width="24" height="30" viewBox="0 0 24 30" fill="none" xmlns="http://www.w3.org/2000/svg">
<path d="M18.25 7.5V6.25C18.25 2.79813 15.4519 0 12 0C8.54813 0 5.75 2.79813 5.75 6.25V7.5H0.75V26.25C0.75 28.3219 2.42812 30 4.5 30H19.5C21.5719 30 23.25 28.3219 23.25 26.25V7.5H18.25ZM8.25 6.25C8.25 4.17906 9.92906 2.5 12 2.5C14.0709 2.5 15.75 4.17906 15.75 6.25V7.5H8.25V6.25ZM20.75 26.25C20.75 26.9406 20.1906 27.5 19.5 27.5H4.5C3.80938 27.5 3.25 26.9406 3.25 26.25V10H20.75V26.25Z" fill="white"/>
</svg>
