<svg width="25" height="25" viewBox="0 0 25 25" fill="none" xmlns="http://www.w3.org/2000/svg">
<g clip-path="url(#clip0_36_111)">
<path d="M12.5 23.4375C9.59919 23.4375 6.8172 22.2852 4.76602 20.234C2.71484 18.1828 1.5625 15.4008 1.5625 12.5C1.5625 9.59919 2.71484 6.8172 4.76602 4.76602C6.8172 2.71484 9.59919 1.5625 12.5 1.5625C15.4008 1.5625 18.1828 2.71484 20.234 4.76602C22.2852 6.8172 23.4375 9.59919 23.4375 12.5C23.4375 15.4008 22.2852 18.1828 20.234 20.234C18.1828 22.2852 15.4008 23.4375 12.5 23.4375ZM12.5 25C15.8152 25 18.9946 23.683 21.3388 21.3388C23.683 18.9946 25 15.8152 25 12.5C25 9.18479 23.683 6.00537 21.3388 3.66117C18.9946 1.31696 15.8152 0 12.5 0C9.18479 0 6.00537 1.31696 3.66117 3.66117C1.31696 6.00537 0 9.18479 0 12.5C0 15.8152 1.31696 18.9946 3.66117 21.3388C6.00537 23.683 9.18479 25 12.5 25Z" fill="black"/>
<path d="M6.25 12.5C6.25 12.2928 6.33231 12.0941 6.47882 11.9476C6.62534 11.8011 6.82405 11.7188 7.03125 11.7188H17.9688C18.176 11.7188 18.3747 11.8011 18.5212 11.9476C18.6677 12.0941 18.75 12.2928 18.75 12.5C18.75 12.7072 18.6677 12.9059 18.5212 13.0524C18.3747 13.1989 18.176 13.2812 17.9688 13.2812H7.03125C6.82405 13.2812 6.62534 13.1989 6.47882 13.0524C6.33231 12.9059 6.25 12.7072 6.25 12.5Z" fill="black"/>
</g>
<defs>
<clipPath id="clip0_36_111">
<rect width="25" height="25" fill="white"/>
</clipPath>
</defs>
</svg>
