<svg width="30" height="30" viewBox="0 0 30 30" fill="none" xmlns="http://www.w3.org/2000/svg">
<path d="M1.53841 24.6412L11.1009 28.3247C11.699 28.5572 12.3806 28.095 12.375 27.449V24.7031H18.6712C18.9199 24.7031 19.1583 24.6043 19.3341 24.4285C19.51 24.2527 19.6087 24.0142 19.6087 23.7656V16.7372C19.6087 16.4885 19.51 16.2501 19.3341 16.0742C19.1583 15.8984 18.9199 15.7997 18.6712 15.7997C18.4226 15.7997 18.1841 15.8984 18.0083 16.0742C17.8325 16.2501 17.7337 16.4885 17.7337 16.7372V22.8281H12.375V6.23341C12.3751 6.04381 12.3177 5.85862 12.2104 5.7023C12.1032 5.54597 11.951 5.42585 11.774 5.35778L6.91779 3.48747H17.7337V9.57841C17.7337 9.82705 17.8325 10.0655 18.0083 10.2413C18.1841 10.4171 18.4226 10.5159 18.6712 10.5159C18.9199 10.5159 19.1583 10.4171 19.3341 10.2413C19.51 10.0655 19.6087 9.82705 19.6087 9.57841V2.55091C19.6087 2.30227 19.51 2.06381 19.3341 1.88799C19.1583 1.71218 18.9199 1.61341 18.6712 1.61341H1.87497C1.39591 1.57872 0.932787 2.07747 0.937474 2.55091V23.7665C0.937474 24.1547 1.1756 24.5015 1.53841 24.6412ZM10.5 26.0831L2.81247 23.1225V3.91684L10.5 6.87747V26.0831Z" fill="white"/>
<path d="M23.5753 17.7085C23.6623 17.7956 23.7656 17.8647 23.8794 17.9119C23.9931 17.9591 24.115 17.9834 24.2382 17.9834C24.3613 17.9834 24.4832 17.9591 24.5969 17.9119C24.7107 17.8647 24.814 17.7956 24.901 17.7085L28.7878 13.8216C28.875 13.7345 28.9442 13.6311 28.9913 13.5173C29.0385 13.4035 29.0628 13.2815 29.0628 13.1583C29.0628 13.0351 29.0385 12.9131 28.9913 12.7993C28.9442 12.6855 28.875 12.5821 28.7878 12.495L24.901 8.60816C24.8139 8.52112 24.7106 8.45208 24.5969 8.40497C24.4831 8.35786 24.3613 8.33362 24.2382 8.33362C24.1151 8.33362 23.9932 8.35786 23.8794 8.40497C23.7657 8.45208 23.6624 8.52112 23.5753 8.60816C23.4883 8.69521 23.4193 8.79854 23.3721 8.91227C23.325 9.02599 23.3008 9.14788 23.3008 9.27098C23.3008 9.39407 23.325 9.51596 23.3721 9.62969C23.4193 9.74341 23.4883 9.84675 23.5753 9.93379L25.8619 12.2194H14.6785C14.4298 12.2194 14.1914 12.3182 14.0156 12.494C13.8397 12.6698 13.741 12.9083 13.741 13.1569C13.741 13.4056 13.8397 13.644 14.0156 13.8198C14.1914 13.9956 14.4298 14.0944 14.6785 14.0944H25.8619L23.5753 16.381C23.4881 16.4681 23.419 16.5716 23.3718 16.6855C23.3246 16.7994 23.3003 16.9214 23.3003 17.0447C23.3003 17.168 23.3246 17.2901 23.3718 17.404C23.419 17.5179 23.4881 17.6213 23.5753 17.7085Z" fill="white"/>
</svg>
