<svg width="70" height="70" viewBox="0 0 70 70" fill="none" xmlns="http://www.w3.org/2000/svg">
<path fill-rule="evenodd" clip-rule="evenodd" d="M23.0988 13.9504H46.9009C53.5167 12.4586 60.9487 15.8402 62.2542 22.4459L67.2078 47.5111C67.5961 49.4761 67.2483 51.5127 66.2287 53.2455C65.209 54.9783 63.5862 56.2904 61.6594 56.9398C59.7327 57.5893 57.632 57.5323 55.7447 56.7793C53.8574 56.0264 52.3107 54.6282 51.3899 52.8428L44.1836 39.6724H25.8153L18.609 52.8428C17.6886 54.629 16.1419 56.0279 14.2543 56.7813C12.3667 57.5348 10.2655 57.592 8.33828 56.9425C6.41109 56.2929 4.78795 54.9804 3.7683 53.247C2.74865 51.5137 2.40128 49.4764 2.79027 47.5111L7.74472 22.4459C9.0502 15.8402 16.4814 12.4586 23.098 13.9496L23.0988 13.9504ZM20.0601 53.5879C18.9577 55.7164 17.1097 57.3818 14.8565 58.2772C12.6034 59.1726 10.0968 59.2377 7.79869 58.4605C5.50055 57.6833 3.56563 56.1162 2.35037 54.0478C1.13511 51.9795 0.721386 49.5493 1.18542 47.2049L6.13904 22.1389C7.65883 14.4504 16.0847 10.8148 23.2788 12.3428H46.721C53.915 10.8148 62.3409 14.4504 63.8599 22.1389L68.8143 47.2041C69.2787 49.5486 68.8652 51.979 67.6501 54.0476C66.4349 56.1162 64.4999 57.6835 62.2017 58.4609C59.9034 59.2382 57.3967 59.1731 55.1434 58.2777C52.8901 57.3822 51.042 55.7167 49.9397 53.5879L43.2053 41.28H26.7944L20.0601 53.5879Z" fill="white"/>
<path fill-rule="evenodd" clip-rule="evenodd" d="M16.1 20.7C16.1 19.9839 16.3687 19.2972 16.8469 18.7908C17.3251 18.2845 17.9737 18 18.65 18H20.35C21.0263 18 21.6749 18.2845 22.1531 18.7908C22.6313 19.2972 22.9 19.9839 22.9 20.7V23.4H25.45C26.1263 23.4 26.7749 23.6845 27.2531 24.1908C27.7313 24.6972 28 25.3839 28 26.1V27.9C28 28.6161 27.7313 29.3028 27.2531 29.8092C26.7749 30.3155 26.1263 30.6 25.45 30.6H22.9V33.3C22.9 34.0161 22.6313 34.7028 22.1531 35.2092C21.6749 35.7155 21.0263 36 20.35 36H18.65C17.9737 36 17.3251 35.7155 16.8469 35.2092C16.3687 34.7028 16.1 34.0161 16.1 33.3V30.6H13.55C12.8737 30.6 12.2251 30.3155 11.7469 29.8092C11.2687 29.3028 11 28.6161 11 27.9V26.1C11 25.3839 11.2687 24.6972 11.7469 24.1908C12.2251 23.6845 12.8737 23.4 13.55 23.4H16.1V20.7ZM17.8 20.7C17.8 20.4613 17.8896 20.2324 18.049 20.0636C18.2084 19.8948 18.4246 19.8 18.65 19.8H20.35C20.5754 19.8 20.7916 19.8948 20.951 20.0636C21.1104 20.2324 21.2 20.4613 21.2 20.7V25.2H25.45C25.6754 25.2 25.8916 25.2948 26.051 25.4636C26.2104 25.6324 26.3 25.8613 26.3 26.1V27.9C26.3 28.1387 26.2104 28.3676 26.051 28.5364C25.8916 28.7052 25.6754 28.8 25.45 28.8H21.2V33.3C21.2 33.5387 21.1104 33.7676 20.951 33.9364C20.7916 34.1052 20.5754 34.2 20.35 34.2H18.65C18.4246 34.2 18.2084 34.1052 18.049 33.9364C17.8896 33.7676 17.8 33.5387 17.8 33.3V28.8H13.55C13.3246 28.8 13.1084 28.7052 12.949 28.5364C12.7896 28.3676 12.7 28.1387 12.7 27.9V26.1C12.7 25.8613 12.7896 25.6324 12.949 25.4636C13.1084 25.2948 13.3246 25.2 13.55 25.2H17.8V20.7Z" fill="white"/>
<path fill-rule="evenodd" clip-rule="evenodd" d="M52 21.5C52 22.4283 51.6839 23.3185 51.1213 23.9749C50.5587 24.6313 49.7956 25 49 25C48.2044 25 47.4413 24.6313 46.8787 23.9749C46.3161 23.3185 46 22.4283 46 21.5C46 20.5717 46.3161 19.6815 46.8787 19.0251C47.4413 18.3687 48.2044 18 49 18C49.7956 18 50.5587 18.3687 51.1213 19.0251C51.6839 19.6815 52 20.5717 52 21.5ZM49 23.25C49.3978 23.25 49.7794 23.0656 50.0607 22.7374C50.342 22.4092 50.5 21.9641 50.5 21.5C50.5 21.0359 50.342 20.5908 50.0607 20.2626C49.7794 19.9344 49.3978 19.75 49 19.75C48.6022 19.75 48.2206 19.9344 47.9393 20.2626C47.658 20.5908 47.5 21.0359 47.5 21.5C47.5 21.9641 47.658 22.4092 47.9393 22.7374C48.2206 23.0656 48.6022 23.25 49 23.25Z" fill="white"/>
<path fill-rule="evenodd" clip-rule="evenodd" d="M52 32.5C52 33.4283 51.6839 34.3185 51.1213 34.9749C50.5587 35.6313 49.7956 36 49 36C48.2044 36 47.4413 35.6313 46.8787 34.9749C46.3161 34.3185 46 33.4283 46 32.5C46 31.5717 46.3161 30.6815 46.8787 30.0251C47.4413 29.3687 48.2044 29 49 29C49.7956 29 50.5587 29.3687 51.1213 30.0251C51.6839 30.6815 52 31.5717 52 32.5V32.5ZM49 34.25C49.3978 34.25 49.7794 34.0656 50.0607 33.7374C50.342 33.4092 50.5 32.9641 50.5 32.5C50.5 32.0359 50.342 31.5908 50.0607 31.2626C49.7794 30.9344 49.3978 30.75 49 30.75C48.6022 30.75 48.2206 30.9344 47.9393 31.2626C47.658 31.5908 47.5 32.0359 47.5 32.5C47.5 32.9641 47.658 33.4092 47.9393 33.7374C48.2206 34.0656 48.6022 34.25 49 34.25Z" fill="white"/>
<path fill-rule="evenodd" clip-rule="evenodd" d="M48 27C48 28.0609 47.6313 29.0783 46.9749 29.8284C46.3185 30.5786 45.4283 31 44.5 31C43.5717 31 42.6815 30.5786 42.0251 29.8284C41.3687 29.0783 41 28.0609 41 27C41 25.9391 41.3687 24.9217 42.0251 24.1716C42.6815 23.4214 43.5717 23 44.5 23C45.4283 23 46.3185 23.4214 46.9749 24.1716C47.6313 24.9217 48 25.9391 48 27V27ZM44.5 29C44.9641 29 45.4092 28.7893 45.7374 28.4142C46.0656 28.0391 46.25 27.5304 46.25 27C46.25 26.4696 46.0656 25.9609 45.7374 25.5858C45.4092 25.2107 44.9641 25 44.5 25C44.0359 25 43.5908 25.2107 43.2626 25.5858C42.9344 25.9609 42.75 26.4696 42.75 27C42.75 27.5304 42.9344 28.0391 43.2626 28.4142C43.5908 28.7893 44.0359 29 44.5 29Z" fill="white"/>
<path fill-rule="evenodd" clip-rule="evenodd" d="M58 27C58 28.0609 57.6313 29.0783 56.9749 29.8284C56.3185 30.5786 55.4283 31 54.5 31C53.5717 31 52.6815 30.5786 52.0251 29.8284C51.3687 29.0783 51 28.0609 51 27C51 25.9391 51.3687 24.9217 52.0251 24.1716C52.6815 23.4214 53.5717 23 54.5 23C55.4283 23 56.3185 23.4214 56.9749 24.1716C57.6313 24.9217 58 25.9391 58 27V27ZM54.5 29C54.9641 29 55.4092 28.7893 55.7374 28.4142C56.0656 28.0391 56.25 27.5304 56.25 27C56.25 26.4696 56.0656 25.9609 55.7374 25.5858C55.4092 25.2107 54.9641 25 54.5 25C54.0359 25 53.5908 25.2107 53.2626 25.5858C52.9344 25.9609 52.75 26.4696 52.75 27C52.75 27.5304 52.9344 28.0391 53.2626 28.4142C53.5908 28.7893 54.0359 29 54.5 29Z" fill="white"/>
</svg>
