<svg width="70" height="70" viewBox="0 0 70 70" fill="none" xmlns="http://www.w3.org/2000/svg">
<mask id="path-1-inside-1_243_46" fill="white">
<path d="M19.3437 9C18.7014 9 18.1386 9.43442 17.9684 10.0595L17.0102 13.6338C16.2859 13.8708 15.5886 14.1677 14.9185 14.5107L11.7265 12.6626C11.5052 12.5348 11.2606 12.4739 11.0192 12.4739C10.6524 12.4739 10.2866 12.6151 10.0126 12.891L7.00809 15.9203C6.46797 16.4644 6.35688 17.3068 6.73605 17.9724L8.46805 21.0078C8.12758 21.6828 7.8343 22.3851 7.59752 23.1147L4.04887 24.0798C3.42983 24.2481 3 24.8151 3 25.462V29.7457C3 30.5142 3.51163 31.1841 4.2514 31.3868L7.60054 32.3002C7.83578 33.0297 8.1306 33.732 8.47108 34.407L6.6363 37.6221C6.31749 38.1832 6.40955 38.8916 6.863 39.3483L10.0157 42.5238C10.2896 42.7998 10.6554 42.9409 11.0222 42.9409C11.2652 42.9409 11.5082 42.88 11.7295 42.7522L14.9215 40.9041C15.5916 41.2471 16.2889 41.5425 17.0132 41.781L17.9714 45.3553C18.1385 45.9788 18.7014 46.4118 19.3437 46.4118H23.7992C24.4414 46.4118 25.0042 45.9773 25.1745 45.3523L26.1327 41.7779C26.857 41.541 27.5543 41.244 28.2244 40.9011L31.4163 42.7491C31.6377 42.877 31.8822 42.9409 32.1237 42.9409C32.4904 42.9409 32.8563 42.7967 33.1302 42.5208L36.2829 39.3453C36.7363 38.8886 36.8284 38.1817 36.5096 37.6221L34.6748 34.404C35.0153 33.729 35.3086 33.0297 35.5453 32.3002L39.094 31.332C39.713 31.1636 40.1429 30.5981 40.1429 29.9528V25.462C40.1429 24.8151 39.7131 24.2481 39.091 24.0798L35.5423 23.1147C35.3071 22.3851 35.0123 21.6828 34.6718 21.0078L36.5066 17.7897C36.8254 17.2285 36.7333 16.5232 36.2799 16.0665L33.1272 12.891C32.8533 12.6151 32.4874 12.4708 32.1206 12.4708C31.8777 12.4708 31.6346 12.5348 31.4133 12.6626L28.2214 14.5107C27.5512 14.1677 26.8539 13.8723 26.1297 13.6338L25.1715 10.0565C25.0043 9.43294 24.4429 9 23.8022 9H19.3437ZM19.4374 10.5588H23.7024L24.8541 14.8517L28.2637 16.2826L32.0904 14.0479L35.1161 17.0986L32.9126 20.9621L34.3302 24.3964L38.5952 25.5564V29.8523L34.3332 31.0123L32.9126 34.4466L35.1191 38.3132L32.1025 41.3486L28.2667 39.1291L24.8571 40.557L23.7055 44.8529H19.4404L18.2888 40.5601L14.8792 39.1291L11.0525 41.3639L8.02674 38.3132L10.2303 34.4496L8.81264 31.0153L4.54762 29.8554V25.5595L8.80962 24.3995L10.2303 20.9652L8.02372 17.0986L11.0404 14.0631L14.8762 16.2826L18.2858 14.8547L19.4374 10.5588ZM21.5714 19.9118C17.2985 19.9118 13.8333 23.402 13.8333 27.7059C13.8333 32.0098 17.2985 35.5 21.5714 35.5C25.8444 35.5 29.3095 32.0098 29.3095 27.7059C29.3095 23.402 25.8444 19.9118 21.5714 19.9118ZM21.5714 21.4706C24.9901 21.4706 27.7619 24.2624 27.7619 27.7059C27.7619 31.1493 24.9901 33.9412 21.5714 33.9412C18.1527 33.9412 15.381 31.1493 15.381 27.7059C15.381 24.2624 18.1527 21.4706 21.5714 21.4706ZM50.8371 30.8235C50.2026 30.8235 49.6441 31.2536 49.4769 31.8709L48.6397 34.9885C48.1614 35.1537 47.701 35.3487 47.2522 35.57L44.4683 33.9594C44.2501 33.8332 44.01 33.7707 43.7701 33.7707C43.4064 33.7707 43.0434 33.9119 42.7726 34.1847L40.3877 36.5869C39.9373 37.0405 39.8468 37.743 40.164 38.298L41.763 41.102C41.5433 41.5541 41.3497 42.0178 41.1857 42.4995L38.0874 43.3428C37.473 43.5112 37.0476 44.0722 37.0476 44.7129V48.1106C37.0476 48.7498 37.4746 49.3109 38.0874 49.4777L41.1827 50.321C41.3452 50.8027 41.5402 51.2664 41.76 51.7185L40.161 54.5225C39.8453 55.079 39.9389 55.7815 40.3877 56.2336L42.7726 58.6357C43.0434 58.9085 43.4064 59.0498 43.7701 59.0498C44.01 59.0498 44.2501 58.9873 44.4683 58.861L47.2522 57.2505C47.701 57.4718 48.1614 57.6667 48.6397 57.832L49.4769 60.9527C49.6441 61.5715 50.2011 62 50.8371 62H54.2105C54.845 62 55.4035 61.5715 55.5707 60.9527L56.408 57.832C56.8862 57.6683 57.3466 57.4718 57.7954 57.2505L60.5793 58.861C60.7975 58.9873 61.0377 59.0498 61.2775 59.0498C61.6412 59.0498 62.0042 58.9085 62.275 58.6357L64.6599 56.2336C65.1103 55.78 65.2009 55.0805 64.8836 54.5256L63.2846 51.7215C63.5044 51.2695 63.6979 50.8057 63.8619 50.324L66.9602 49.4807C67.5746 49.3123 68 48.7513 68 48.1106V44.7129C68 44.0738 67.5731 43.5127 66.9572 43.3459L63.8619 42.5025C63.6979 42.0209 63.5044 41.5571 63.2846 41.1051L64.8836 38.298C65.1993 37.7415 65.1057 37.042 64.6569 36.59L62.272 34.1878C62.0012 33.915 61.6412 33.7737 61.2775 33.7737C61.0377 33.7737 60.7945 33.8362 60.5763 33.9625L57.7924 35.5731C57.3436 35.3517 56.8832 35.1568 56.4049 34.9916L55.5677 31.8709C55.4021 31.252 54.845 30.8235 54.2105 30.8235H50.8371ZM50.946 32.3824H54.1017L55.1294 36.1972L57.8528 37.3359L61.2443 35.3539L63.4901 37.616L61.5345 41.0472L62.6649 43.7904L66.4524 44.8225V48.001L62.6649 49.0362L61.5314 51.7794L63.4901 55.2075L61.2564 57.4575L57.8498 55.4877L55.1264 56.6263L54.1017 60.4412H50.946L49.9182 56.6263L47.1948 55.4877L43.8033 57.4697L41.5575 55.2075L43.5132 51.7763L42.3827 49.0331L38.5952 48.001V44.8225L42.3827 43.7873L43.5162 41.0442L41.5575 37.616L43.7912 35.366L47.1978 37.3359L49.9213 36.1972L50.946 32.3824ZM52.5238 40.1765C49.1051 40.1765 46.3333 42.9683 46.3333 46.4118C46.3333 49.8552 49.1051 52.6471 52.5238 52.6471C55.9425 52.6471 58.7143 49.8552 58.7143 46.4118C58.7143 42.9683 55.9425 40.1765 52.5238 40.1765ZM52.5238 41.7353C55.0882 41.7353 57.1667 43.8288 57.1667 46.4118C57.1667 48.9947 55.0882 51.0882 52.5238 51.0882C49.9594 51.0882 47.881 48.9947 47.881 46.4118C47.881 43.8288 49.9594 41.7353 52.5238 41.7353Z"/>
</mask>
<path d="M19.3437 9C18.7014 9 18.1386 9.43442 17.9684 10.0595L17.0102 13.6338C16.2859 13.8708 15.5886 14.1677 14.9185 14.5107L11.7265 12.6626C11.5052 12.5348 11.2606 12.4739 11.0192 12.4739C10.6524 12.4739 10.2866 12.6151 10.0126 12.891L7.00809 15.9203C6.46797 16.4644 6.35688 17.3068 6.73605 17.9724L8.46805 21.0078C8.12758 21.6828 7.8343 22.3851 7.59752 23.1147L4.04887 24.0798C3.42983 24.2481 3 24.8151 3 25.462V29.7457C3 30.5142 3.51163 31.1841 4.2514 31.3868L7.60054 32.3002C7.83578 33.0297 8.1306 33.732 8.47108 34.407L6.6363 37.6221C6.31749 38.1832 6.40955 38.8916 6.863 39.3483L10.0157 42.5238C10.2896 42.7998 10.6554 42.9409 11.0222 42.9409C11.2652 42.9409 11.5082 42.88 11.7295 42.7522L14.9215 40.9041C15.5916 41.2471 16.2889 41.5425 17.0132 41.781L17.9714 45.3553C18.1385 45.9788 18.7014 46.4118 19.3437 46.4118H23.7992C24.4414 46.4118 25.0042 45.9773 25.1745 45.3523L26.1327 41.7779C26.857 41.541 27.5543 41.244 28.2244 40.9011L31.4163 42.7491C31.6377 42.877 31.8822 42.9409 32.1237 42.9409C32.4904 42.9409 32.8563 42.7967 33.1302 42.5208L36.2829 39.3453C36.7363 38.8886 36.8284 38.1817 36.5096 37.6221L34.6748 34.404C35.0153 33.729 35.3086 33.0297 35.5453 32.3002L39.094 31.332C39.713 31.1636 40.1429 30.5981 40.1429 29.9528V25.462C40.1429 24.8151 39.7131 24.2481 39.091 24.0798L35.5423 23.1147C35.3071 22.3851 35.0123 21.6828 34.6718 21.0078L36.5066 17.7897C36.8254 17.2285 36.7333 16.5232 36.2799 16.0665L33.1272 12.891C32.8533 12.6151 32.4874 12.4708 32.1206 12.4708C31.8777 12.4708 31.6346 12.5348 31.4133 12.6626L28.2214 14.5107C27.5512 14.1677 26.8539 13.8723 26.1297 13.6338L25.1715 10.0565C25.0043 9.43294 24.4429 9 23.8022 9H19.3437ZM19.4374 10.5588H23.7024L24.8541 14.8517L28.2637 16.2826L32.0904 14.0479L35.1161 17.0986L32.9126 20.9621L34.3302 24.3964L38.5952 25.5564V29.8523L34.3332 31.0123L32.9126 34.4466L35.1191 38.3132L32.1025 41.3486L28.2667 39.1291L24.8571 40.557L23.7055 44.8529H19.4404L18.2888 40.5601L14.8792 39.1291L11.0525 41.3639L8.02674 38.3132L10.2303 34.4496L8.81264 31.0153L4.54762 29.8554V25.5595L8.80962 24.3995L10.2303 20.9652L8.02372 17.0986L11.0404 14.0631L14.8762 16.2826L18.2858 14.8547L19.4374 10.5588ZM21.5714 19.9118C17.2985 19.9118 13.8333 23.402 13.8333 27.7059C13.8333 32.0098 17.2985 35.5 21.5714 35.5C25.8444 35.5 29.3095 32.0098 29.3095 27.7059C29.3095 23.402 25.8444 19.9118 21.5714 19.9118ZM21.5714 21.4706C24.9901 21.4706 27.7619 24.2624 27.7619 27.7059C27.7619 31.1493 24.9901 33.9412 21.5714 33.9412C18.1527 33.9412 15.381 31.1493 15.381 27.7059C15.381 24.2624 18.1527 21.4706 21.5714 21.4706ZM50.8371 30.8235C50.2026 30.8235 49.6441 31.2536 49.4769 31.8709L48.6397 34.9885C48.1614 35.1537 47.701 35.3487 47.2522 35.57L44.4683 33.9594C44.2501 33.8332 44.01 33.7707 43.7701 33.7707C43.4064 33.7707 43.0434 33.9119 42.7726 34.1847L40.3877 36.5869C39.9373 37.0405 39.8468 37.743 40.164 38.298L41.763 41.102C41.5433 41.5541 41.3497 42.0178 41.1857 42.4995L38.0874 43.3428C37.473 43.5112 37.0476 44.0722 37.0476 44.7129V48.1106C37.0476 48.7498 37.4746 49.3109 38.0874 49.4777L41.1827 50.321C41.3452 50.8027 41.5402 51.2664 41.76 51.7185L40.161 54.5225C39.8453 55.079 39.9389 55.7815 40.3877 56.2336L42.7726 58.6357C43.0434 58.9085 43.4064 59.0498 43.7701 59.0498C44.01 59.0498 44.2501 58.9873 44.4683 58.861L47.2522 57.2505C47.701 57.4718 48.1614 57.6667 48.6397 57.832L49.4769 60.9527C49.6441 61.5715 50.2011 62 50.8371 62H54.2105C54.845 62 55.4035 61.5715 55.5707 60.9527L56.408 57.832C56.8862 57.6683 57.3466 57.4718 57.7954 57.2505L60.5793 58.861C60.7975 58.9873 61.0377 59.0498 61.2775 59.0498C61.6412 59.0498 62.0042 58.9085 62.275 58.6357L64.6599 56.2336C65.1103 55.78 65.2009 55.0805 64.8836 54.5256L63.2846 51.7215C63.5044 51.2695 63.6979 50.8057 63.8619 50.324L66.9602 49.4807C67.5746 49.3123 68 48.7513 68 48.1106V44.7129C68 44.0738 67.5731 43.5127 66.9572 43.3459L63.8619 42.5025C63.6979 42.0209 63.5044 41.5571 63.2846 41.1051L64.8836 38.298C65.1993 37.7415 65.1057 37.042 64.6569 36.59L62.272 34.1878C62.0012 33.915 61.6412 33.7737 61.2775 33.7737C61.0377 33.7737 60.7945 33.8362 60.5763 33.9625L57.7924 35.5731C57.3436 35.3517 56.8832 35.1568 56.4049 34.9916L55.5677 31.8709C55.4021 31.252 54.845 30.8235 54.2105 30.8235H50.8371ZM50.946 32.3824H54.1017L55.1294 36.1972L57.8528 37.3359L61.2443 35.3539L63.4901 37.616L61.5345 41.0472L62.6649 43.7904L66.4524 44.8225V48.001L62.6649 49.0362L61.5314 51.7794L63.4901 55.2075L61.2564 57.4575L57.8498 55.4877L55.1264 56.6263L54.1017 60.4412H50.946L49.9182 56.6263L47.1948 55.4877L43.8033 57.4697L41.5575 55.2075L43.5132 51.7763L42.3827 49.0331L38.5952 48.001V44.8225L42.3827 43.7873L43.5162 41.0442L41.5575 37.616L43.7912 35.366L47.1978 37.3359L49.9213 36.1972L50.946 32.3824ZM52.5238 40.1765C49.1051 40.1765 46.3333 42.9683 46.3333 46.4118C46.3333 49.8552 49.1051 52.6471 52.5238 52.6471C55.9425 52.6471 58.7143 49.8552 58.7143 46.4118C58.7143 42.9683 55.9425 40.1765 52.5238 40.1765ZM52.5238 41.7353C55.0882 41.7353 57.1667 43.8288 57.1667 46.4118C57.1667 48.9947 55.0882 51.0882 52.5238 51.0882C49.9594 51.0882 47.881 48.9947 47.881 46.4118C47.881 43.8288 49.9594 41.7353 52.5238 41.7353Z" fill="white" stroke="white" stroke-width="10" mask="url(#path-1-inside-1_243_46)"/>
</svg>
