<svg width="76" height="76" viewBox="0 0 76 76" fill="none" xmlns="http://www.w3.org/2000/svg">
<g clip-path="url(#clip0_127_56)">
<path d="M2.375 17.8125V41.5625C2.3761 42.507 2.75179 43.4125 3.41965 44.0804C4.08751 44.7482 4.993 45.1239 5.9375 45.125H21.375V47.5H19C18.6851 47.5 18.383 47.6251 18.1603 47.8478C17.9376 48.0705 17.8125 48.3726 17.8125 48.6875C17.8125 49.0024 17.9376 49.3045 18.1603 49.5272C18.383 49.7499 18.6851 49.875 19 49.875H34.4375C34.7524 49.875 35.0545 49.7499 35.2772 49.5272C35.4999 49.3045 35.625 49.0024 35.625 48.6875C35.625 48.3726 35.4999 48.0705 35.2772 47.8478C35.0545 47.6251 34.7524 47.5 34.4375 47.5H32.0625V45.125H47.5C48.4445 45.1239 49.35 44.7482 50.0179 44.0804C50.6857 43.4125 51.0614 42.507 51.0625 41.5625V17.8125C51.0614 16.868 50.6857 15.9625 50.0179 15.2946C49.35 14.6268 48.4445 14.2511 47.5 14.25H5.9375C4.993 14.2511 4.08751 14.6268 3.41965 15.2946C2.75179 15.9625 2.3761 16.868 2.375 17.8125ZM29.6875 47.5H23.75V45.125H29.6875V47.5ZM48.6875 17.8125V41.5625C48.6872 41.8773 48.562 42.1792 48.3393 42.4018C48.1167 42.6245 47.8148 42.7497 47.5 42.75H5.9375C5.62265 42.7497 5.32079 42.6245 5.09816 42.4018C4.87553 42.1792 4.75031 41.8773 4.75 41.5625V17.8125C4.75031 17.4977 4.87553 17.1958 5.09816 16.9732C5.32079 16.7505 5.62265 16.6253 5.9375 16.625H47.5C47.8148 16.6253 48.1167 16.7505 48.3393 16.9732C48.562 17.1958 48.6872 17.4977 48.6875 17.8125ZM72.4375 14.25H58.1875C57.243 14.2511 56.3375 14.6268 55.6696 15.2946C55.0018 15.9625 54.6261 16.868 54.625 17.8125V55.8125C54.6261 56.757 55.0018 57.6625 55.6696 58.3304C56.3375 58.9982 57.243 59.3739 58.1875 59.375H72.4375C73.382 59.3739 74.2875 58.9982 74.9554 58.3304C75.6232 57.6625 75.9989 56.757 76 55.8125V17.8125C75.9989 16.868 75.6232 15.9625 74.9554 15.2946C74.2875 14.6268 73.382 14.2511 72.4375 14.25ZM73.625 55.8125C73.6247 56.1273 73.4995 56.4292 73.2768 56.6518C73.0542 56.8745 72.7523 56.9997 72.4375 57H58.1875C57.8727 56.9997 57.5708 56.8745 57.3482 56.6518C57.1255 56.4292 57.0003 56.1273 57 55.8125V40.375H73.625V55.8125ZM73.625 38H57V35.625H73.625V38ZM73.625 33.25H57V17.8125C57.0003 17.4977 57.1255 17.1958 57.3482 16.9732C57.5708 16.7505 57.8727 16.6253 58.1875 16.625H72.4375C72.7523 16.6253 73.0542 16.7505 73.2768 16.9732C73.4995 17.1958 73.6247 17.4977 73.625 17.8125V33.25Z" fill="white"/>
<path d="M69.4688 21.375H61.1563C60.8414 21.375 60.5393 21.5001 60.3166 21.7228C60.0939 21.9455 59.9688 22.2476 59.9688 22.5625C59.9688 22.8774 60.0939 23.1795 60.3166 23.4022C60.5393 23.6249 60.8414 23.75 61.1563 23.75H69.4688C69.7838 23.75 70.0858 23.6249 70.3085 23.4022C70.5312 23.1795 70.6563 22.8774 70.6563 22.5625C70.6563 22.2476 70.5312 21.9455 70.3085 21.7228C70.0858 21.5001 69.7838 21.375 69.4688 21.375ZM69.4688 26.125H61.1563C60.8414 26.125 60.5393 26.2501 60.3166 26.4728C60.0939 26.6955 59.9688 26.9976 59.9688 27.3125C59.9688 27.6274 60.0939 27.9295 60.3166 28.1522C60.5393 28.3749 60.8414 28.5 61.1563 28.5H69.4688C69.7838 28.5 70.0858 28.3749 70.3085 28.1522C70.5312 27.9295 70.6563 27.6274 70.6563 27.3125C70.6563 26.9976 70.5312 26.6955 70.3085 26.4728C70.0858 26.2501 69.7838 26.125 69.4688 26.125ZM62.9376 52.25H67.6876C68.0025 52.25 68.3046 52.1249 68.5273 51.9022C68.7499 51.6795 68.8751 51.3774 68.8751 51.0625V46.3125C68.8751 45.9976 68.7499 45.6955 68.5273 45.4728C68.3046 45.2501 68.0025 45.125 67.6876 45.125H62.9376C62.6226 45.125 62.3206 45.2501 62.0979 45.4728C61.8752 45.6955 61.7501 45.9976 61.7501 46.3125V51.0625C61.7501 51.3774 61.8752 51.6795 62.0979 51.9022C62.3206 52.1249 62.6226 52.25 62.9376 52.25ZM64.1251 47.5H66.5001V49.875H64.1251V47.5ZM0.346215 60.5981C0.561759 60.9523 0.865392 61.2445 1.22751 61.4464C1.58963 61.6483 1.99789 61.7529 2.41247 61.75H51.0252C51.4398 61.753 51.8482 61.6484 52.2104 61.4466C52.5727 61.2447 52.8764 60.9524 53.092 60.5981C53.3033 60.255 53.422 59.8629 53.4366 59.4602C53.4511 59.0575 53.3611 58.6578 53.1751 58.3003L50.7283 53.5503C50.5248 53.1564 50.2163 52.8265 49.837 52.597C49.4577 52.3675 49.0222 52.2474 48.5789 52.25H4.85931C4.41597 52.2474 3.98055 52.3675 3.60122 52.597C3.22189 52.8265 2.91342 53.1564 2.70993 53.5503L0.262497 58.3003C0.0765509 58.6578 -0.013533 59.0575 0.0010358 59.4602C0.0156046 59.8629 0.134328 60.255 0.345622 60.5981H0.346215ZM4.8599 54.625L48.6169 54.6375L51.0649 59.3607C51.0578 59.375 51.0341 59.375 51.0252 59.375L2.37506 59.3875L4.8599 54.625ZM30.0777 28.0084C30.3003 28.2312 30.6024 28.3564 30.9174 28.3566C31.2324 28.3567 31.5345 28.2316 31.7574 28.009C31.9802 27.7863 32.1054 27.4842 32.1056 27.1692C32.1057 26.8542 31.9806 26.5521 31.758 26.3293L30.0777 24.6489C29.8549 24.4263 29.5528 24.3012 29.2379 24.3013C28.9229 24.3013 28.6209 24.4265 28.3982 24.6492C28.1756 24.872 28.0505 25.1741 28.0506 25.489C28.0506 25.804 28.1758 26.106 28.3985 26.3287L30.0777 28.0084ZM23.36 34.7255C23.5826 34.9483 23.8847 35.0735 24.1997 35.0736C24.5147 35.0738 24.8169 34.9487 25.0397 34.7261C25.2625 34.5034 25.3878 34.2013 25.3879 33.8863C25.388 33.5713 25.2629 33.2692 25.0403 33.0463L23.36 31.3666C23.136 31.1503 22.836 31.0306 22.5247 31.0333C22.2133 31.036 21.9155 31.1609 21.6953 31.3811C21.4751 31.6013 21.3502 31.8991 21.3475 32.2105C21.3448 32.5218 21.4645 32.8218 21.6808 33.0457L23.36 34.7255ZM28.3985 33.0457C28.6225 33.2621 28.9225 33.3818 29.2338 33.379C29.5452 33.3763 29.843 33.2515 30.0632 33.0313C30.2834 32.8111 30.4082 32.5133 30.411 32.2019C30.4137 31.8906 30.294 31.5906 30.0777 31.3666L25.0397 26.3293C24.8157 26.1129 24.5158 25.9932 24.2044 25.996C23.893 25.9987 23.5952 26.1235 23.375 26.3437C23.1549 26.5639 23.03 26.8617 23.0273 27.1731C23.0246 27.4844 23.1442 27.7844 23.3606 28.0084L28.3985 33.0457Z" fill="white"/>
</g>
<defs>
<clipPath id="clip0_127_56">
<rect width="76" height="76" fill="white"/>
</clipPath>
</defs>
</svg>
