<svg width="25" height="25" viewBox="0 0 25 25" fill="none" xmlns="http://www.w3.org/2000/svg">
<path d="M19.6318 3.62272H15.8046V2.50453C15.8046 1.74999 15.1909 1.13635 14.4364 1.13635H10.5636C9.8091 1.13635 9.19547 1.74999 9.19547 2.50453V3.62272H5.36819C4.31365 3.62272 3.45001 4.48181 3.45001 5.5409V7.42272C3.45001 7.67272 3.65456 7.87726 3.90456 7.87726H4.85456V21.95C4.85456 23.0091 5.71365 23.8682 6.76819 23.8682H18.2273C19.2864 23.8682 20.1455 23.0091 20.1455 21.95V7.87272H21.0955C21.3455 7.87272 21.55 7.66817 21.55 7.41817V5.53635C21.55 4.48181 20.6909 3.62272 19.6318 3.62272ZM10.1046 2.50453C10.1046 2.24999 10.3091 2.04544 10.5636 2.04544H14.4364C14.6909 2.04544 14.8955 2.24999 14.8955 2.50453V3.62272H10.1046V2.50453ZM19.2364 21.9454C19.2364 22.5045 18.7864 22.9545 18.2273 22.9545H6.76819C6.21365 22.9545 5.76365 22.5045 5.76365 21.9454V7.87272H19.2364V21.9454ZM20.6409 6.96362H4.3591V5.53635C4.3591 4.98181 4.8091 4.52726 5.36819 4.52726H19.6364C20.1909 4.52726 20.6455 4.97726 20.6455 5.53635V6.96362H20.6409Z" fill="black"/>
<path d="M13.9864 21.1364C14.2364 21.1364 14.4409 20.9318 14.4409 20.6818V10.1455C14.4409 9.89546 14.2364 9.69092 13.9864 9.69092C13.7364 9.69092 13.5318 9.89546 13.5318 10.1455V20.6818C13.5318 20.9318 13.7364 21.1364 13.9864 21.1364ZM11.0137 21.1364C11.2637 21.1364 11.4682 20.9318 11.4682 20.6818V10.1455C11.4682 9.89546 11.2637 9.69092 11.0137 9.69092C10.7637 9.69092 10.5591 9.89546 10.5591 10.1455V20.6818C10.5591 20.9318 10.7591 21.1364 11.0137 21.1364ZM16.9637 21.1364C17.2137 21.1364 17.4182 20.9318 17.4182 20.6818V10.1455C17.4182 9.89546 17.2137 9.69092 16.9637 9.69092C16.7137 9.69092 16.5091 9.89546 16.5091 10.1455V20.6818C16.5091 20.9318 16.7137 21.1364 16.9637 21.1364ZM8.03639 21.1364C8.28639 21.1364 8.49094 20.9318 8.49094 20.6818V10.1455C8.49094 9.89546 8.28639 9.69092 8.03639 9.69092C7.78639 9.69092 7.58185 9.89546 7.58185 10.1455V20.6818C7.58185 20.9318 7.78639 21.1364 8.03639 21.1364Z" fill="black"/>
</svg>
