<svg width="50" height="50" viewBox="0 0 50 50" fill="none" xmlns="http://www.w3.org/2000/svg">
<path d="M32.9583 28.875C30.5934 30.4246 27.8274 31.2501 25 31.2501C22.1726 31.2501 19.4066 30.4246 17.0417 28.875C13.9921 30.3087 11.3852 32.5377 9.49532 35.3277C7.60542 38.1176 6.50233 41.3653 6.30209 44.7292C6.29289 44.8717 6.31312 45.0146 6.3615 45.149C6.40989 45.2834 6.48539 45.4064 6.58334 45.5104C6.68136 45.6133 6.79939 45.695 6.93016 45.7505C7.06093 45.806 7.20168 45.8342 7.34375 45.8333H42.7083C42.8504 45.8342 42.9912 45.806 43.1219 45.7505C43.2527 45.695 43.3707 45.6133 43.4688 45.5104C43.5667 45.4064 43.6422 45.2834 43.6906 45.149C43.739 45.0146 43.7592 44.8717 43.75 44.7292C43.5449 41.3598 42.434 38.1084 40.5346 35.3179C38.6352 32.5274 36.0177 30.3015 32.9583 28.875Z" fill="black"/>
<path d="M25 29.1667C31.9036 29.1667 37.5 23.5702 37.5 16.6667C37.5 9.7631 31.9036 4.16666 25 4.16666C18.0964 4.16666 12.5 9.7631 12.5 16.6667C12.5 23.5702 18.0964 29.1667 25 29.1667Z" fill="black"/>
</svg>
