<svg width="30" height="30" viewBox="0 0 30 30" fill="none" xmlns="http://www.w3.org/2000/svg">
<path d="M19.7751 17.325C18.3561 18.2547 16.6965 18.75 15.0001 18.75C13.3036 18.75 11.6441 18.2547 10.2251 17.325C8.39532 18.1852 6.83121 19.5226 5.69727 21.1966C4.56333 22.8705 3.90147 24.8191 3.78132 26.8375C3.77581 26.923 3.78794 27.0087 3.81697 27.0894C3.846 27.17 3.89131 27.2438 3.95007 27.3062C4.00889 27.3679 4.07971 27.4169 4.15817 27.4502C4.23663 27.4836 4.32108 27.5005 4.40632 27.5H25.6251C25.7103 27.5005 25.7948 27.4836 25.8732 27.4502C25.9517 27.4169 26.0225 27.3679 26.0813 27.3062C26.1401 27.2438 26.1854 27.17 26.2144 27.0894C26.2435 27.0087 26.2556 26.923 26.2501 26.8375C26.127 24.8159 25.4605 22.865 24.3208 21.1907C23.1812 19.5164 21.6107 18.1809 19.7751 17.325Z" fill="white"/>
<path d="M15 17.5C19.1421 17.5 22.5 14.1421 22.5 10C22.5 5.85786 19.1421 2.5 15 2.5C10.8579 2.5 7.5 5.85786 7.5 10C7.5 14.1421 10.8579 17.5 15 17.5Z" fill="white"/>
</svg>
