<svg width="39" height="39" viewBox="0 0 39 39" fill="none" xmlns="http://www.w3.org/2000/svg">
<g clip-path="url(#clip0_214_25)">
<path d="M19.0808 29.3133H21.4111C21.4111 29.3133 22.1155 29.2353 22.4738 28.8478C22.8053 28.4919 22.7931 27.824 22.7931 27.824C22.7931 27.824 22.7468 24.6967 24.1996 24.236C25.6304 23.7826 27.4682 27.2585 29.4158 28.5967C30.8881 29.6083 32.0069 29.3865 32.0069 29.3865L37.2158 29.3133C37.2158 29.3133 39.9409 29.1451 38.6491 27.0026C38.5442 26.8271 37.8959 25.4182 34.7759 22.5225C31.5096 19.4902 31.9484 19.9826 35.8825 14.7395C38.2786 11.5464 39.2365 9.59639 38.9367 8.76277C38.6515 7.96814 36.8892 8.17777 36.8892 8.17777L31.0294 8.21189C31.0294 8.21189 30.5956 8.15339 30.2714 8.34596C29.9569 8.53608 29.7546 8.97483 29.7546 8.97483C29.7546 8.97483 28.8259 11.4465 27.5877 13.5476C24.9771 17.9814 23.9314 18.2154 23.5049 17.94C22.5128 17.2989 22.7614 15.3611 22.7614 13.9863C22.7614 9.68902 23.4122 7.89746 21.4915 7.43433C20.8529 7.28077 20.3849 7.17839 18.7542 7.16133C16.6628 7.13939 14.8907 7.16864 13.8889 7.65858C13.2211 7.98521 12.7067 8.71402 13.0212 8.75546C13.4087 8.80664 14.2862 8.99189 14.7518 9.62564C15.3539 10.4422 15.3319 12.2801 15.3319 12.2801C15.3319 12.2801 15.6781 17.3379 14.5251 17.9668C13.7329 18.3982 12.6482 17.5183 10.3204 13.494C9.12849 11.4343 8.22662 9.15521 8.22662 9.15521C8.22662 9.15521 8.05356 8.73108 7.74399 8.50439C7.36862 8.22896 6.84212 8.14121 6.84212 8.14121L1.26999 8.17533C1.26999 8.17533 0.433931 8.19971 0.126806 8.56289C-0.146194 8.88708 0.104868 9.55496 0.104868 9.55496C0.104868 9.55496 4.46799 19.7608 9.40637 24.9063C13.9377 29.6229 19.0808 29.3133 19.0808 29.3133Z" fill="#1E88E5"/>
</g>
<defs>
<clipPath id="clip0_214_25">
<rect width="39" height="39" fill="white"/>
</clipPath>
</defs>
</svg>
