<svg width="45" height="31" viewBox="0 0 45 31" fill="none" xmlns="http://www.w3.org/2000/svg">
<g clip-path="url(#clip0_214_16)">
<path d="M29.9755 15.0629C25.8496 12.9702 21.8989 11.0462 17.8606 9.03748V21.0543C22.1101 18.8617 26.5893 16.8538 29.9931 15.0629H29.9755Z" fill="white"/>
<path d="M29.9755 15.0629C25.8496 12.9702 17.8606 9.03748 17.8606 9.03748L28.512 15.8324C28.5128 15.8324 26.5717 16.8538 29.9755 15.0629Z" fill="#E8E0E0"/>
<path d="M18.6369 30.461C10.0669 30.3112 7.1398 30.1765 5.34063 29.8247C4.12338 29.5909 3.06559 29.0719 2.28998 28.3191C1.69054 27.7494 1.21382 26.8801 0.843971 25.6741C0.526717 24.6693 0.403155 23.8333 0.226995 21.7913C-0.0426711 17.1827 -0.106957 13.4148 0.226995 9.20471C0.502505 6.87979 0.636086 4.11984 2.46614 2.50967C3.33024 1.75609 4.33544 1.27114 5.46419 1.07066C7.22746 0.752902 14.7397 0.501709 22.5166 0.501709C30.276 0.501709 37.8049 0.752902 39.5699 1.07066C40.98 1.32185 42.3024 2.07464 43.0789 3.04533C44.7486 5.53824 44.7778 8.63814 44.9473 11.0629C45.0174 12.2182 45.0174 18.7786 44.9473 19.9339C44.6835 23.766 44.4714 25.1218 43.872 26.5275C43.5013 27.415 43.1849 27.8833 42.6372 28.4023C41.7782 29.2011 40.6832 29.7323 39.4981 29.9253C32.0818 30.4547 25.7843 30.5696 18.6369 30.461ZM29.9938 15.063C25.8678 12.9702 21.9172 11.0296 17.8789 9.02087V21.0385C22.1284 18.8459 26.6084 16.8372 30.0113 15.0463L29.9938 15.063Z" fill="#CD201F"/>
</g>
<defs>
<clipPath id="clip0_214_16">
<rect width="45" height="30" fill="white" transform="translate(0 0.5)"/>
</clipPath>
</defs>
</svg>
